<svg xmlns="http://www.w3.org/2000/svg" viewBox="0 0 512 512" role="img" aria-labelledby="title desc">
  <title id="title">Snaptix</title>
  <desc id="desc">Snaptix app icon</desc>
  <defs>
    <linearGradient id="bg" x1="72" y1="48" x2="456" y2="464" gradientUnits="userSpaceOnUse">
      <stop stop-color="#7c3aed" />
      <stop offset="0.52" stop-color="#4f46e5" />
      <stop offset="1" stop-color="#0891b2" />
    </linearGradient>
    <linearGradient id="shine" x1="154" y1="146" x2="358" y2="366" gradientUnits="userSpaceOnUse">
      <stop stop-color="#ffffff" />
      <stop offset="1" stop-color="#dbeafe" />
    </linearGradient>
  </defs>
  <rect width="512" height="512" rx="116" fill="url(#bg)" />
  <path
    d="M154 170c0-32 27-58 61-58h160c13 0 21 14 14 25l-30 47c-5 8-14 13-24 13H219c-13 0-23 9-23 21 0 10 7 18 19 22l106 34c46 15 72 48 72 90 0 35-28 64-64 64H145c-13 0-21-14-14-25l31-49c5-8 14-13 24-13h135c15 0 27-10 27-23 0-11-8-20-22-25l-104-34c-44-14-68-46-68-89Z"
    fill="url(#shine)"
  />
  <path
    d="M143 391h108m92-250h37M179 218h121"
    stroke="#ffffff"
    stroke-opacity="0.24"
    stroke-width="22"
    stroke-linecap="round"
  />
</svg>
